<svg width="1366" height="1024" viewBox="0 0 1366 1024" fill="none" xmlns="http://www.w3.org/2000/svg">
<path d="M960.541 828.589C943.309 828.61 926.722 821.188 914.352 807.097C895.356 785.455 893.291 755.917 909.103 731.844L1059.33 503.094L1084.93 376.145C1085.68 371.52 1084.05 366.701 1080.39 363.259C1076.84 359.924 1072.13 358.612 1067.44 359.666C1061.29 361.043 1057.48 364.829 1055.44 371.584L1006.77 526.264C1001.2 543.668 985.217 555.307 966.995 555.307C954.367 555.307 942.556 549.692 934.596 539.882C926.615 530.072 923.56 517.336 926.163 504.988L952.409 380.728C953.98 373.306 953.162 366.959 950.215 363.323C947.977 360.57 944.32 359.15 939.351 359.15C933.305 359.15 929.412 361.796 923.302 370.036L831.355 510.043L777.27 778.355C773.441 797.308 760.791 813.637 743.409 822.07C717.485 834.634 688.464 828.761 669.446 807.118C650.45 785.476 648.385 755.939 664.197 731.865L814.424 503.116L840.024 376.167C840.777 371.541 839.142 366.722 835.485 363.28C831.935 359.946 827.246 358.634 822.534 359.688C816.381 361.065 812.574 364.851 810.53 371.606L761.867 526.286C756.295 543.668 740.332 555.328 722.132 555.328H722.111C722.089 555.328 722.089 555.328 722.089 555.328C709.461 555.328 697.672 549.692 689.712 539.903C681.73 530.093 678.676 517.379 681.279 505.009L707.439 380.771C709.009 373.349 708.192 367.002 705.244 363.366C703.007 360.613 699.35 359.193 694.38 359.193C688.335 359.193 684.441 361.839 678.331 370.057L586.384 510.065L532.3 778.355C528.471 797.308 515.799 813.637 498.417 822.07C472.493 834.634 443.472 828.761 424.476 807.118C405.48 785.476 403.415 755.939 419.227 731.865L569.453 503.116L595.054 376.167C595.807 371.541 594.172 366.722 590.515 363.28C586.965 359.967 582.254 358.634 577.585 359.709C571.433 361.086 567.603 364.872 565.581 371.606L516.918 526.286C511.346 543.668 495.383 555.328 477.162 555.328C464.534 555.328 452.701 549.713 444.741 539.903C436.782 530.093 433.705 517.379 436.308 505.009L462.468 380.771C464.017 373.349 463.221 367.002 460.274 363.366C458.037 360.613 454.379 359.193 449.41 359.193C443.902 359.236 438.825 362.57 436.48 367.712L352.515 562.944C347.222 574.626 335.734 582.112 323.192 582.177C323.128 582.177 323.042 582.177 322.977 582.177C312.349 582.177 302.41 576.928 296.365 568.107C290.191 559.093 288.9 547.648 292.902 537.472L359.98 367.196C361.83 362.463 361.27 357.407 358.452 353.277C355.72 349.297 351.439 347.016 346.684 347.016C346.641 347.016 346.62 347.016 346.577 347.016C341.027 347.059 335.928 350.394 333.604 355.536L309.273 407.189C304.088 418.591 292.622 426.077 280.08 426.142C269.259 425.712 259.341 420.957 253.253 412.072C247.079 403.058 245.788 391.613 249.811 381.438C250.392 379.91 251.596 375.672 251.424 373.004C251.08 367.303 249.208 363.388 245.895 361.323C241.829 358.806 236.257 359.193 233.762 360.269C230.019 361.861 225.329 366.443 219.778 373.908L191.639 416.784L176.601 406.909L205.042 363.625C213.023 352.868 219.8 346.672 226.706 343.725C234.063 340.584 245.766 340.089 255.361 346.027C261.277 349.684 268.506 357.128 269.409 371.907C269.861 379.179 266.935 387.052 266.591 387.934C264.719 392.71 265.279 397.766 268.118 401.897C270.851 405.876 275.132 408.157 279.886 408.157C279.929 408.157 279.951 408.157 279.994 408.157C285.544 408.114 290.643 404.779 292.966 399.638L316.996 348.608C322.461 336.604 333.949 329.117 346.491 329.031C346.555 329.031 346.62 329.031 346.706 329.031C357.333 329.031 367.294 334.281 373.339 343.101C379.514 352.115 380.804 363.56 376.781 373.736L375.168 377.909L309.682 544.055C307.832 548.745 308.413 553.801 311.252 557.932C314.006 561.933 317.986 564.579 323.106 564.192C328.656 564.149 333.755 560.814 336.1 555.673L420.066 360.441C425.358 348.759 436.846 341.272 449.388 341.208C462.705 341.208 470.256 347.081 474.258 352.007C480.733 359.989 482.82 371.498 480.088 384.471L453.928 508.709C452.443 515.744 454.207 522.994 458.725 528.566C463.264 534.138 469.976 537.343 477.162 537.343C487.531 537.343 496.61 530.696 499.772 520.843L548.392 366.292C552.243 353.535 561.235 344.93 573.648 342.133C584.082 339.788 595.011 342.778 602.863 350.157C610.823 357.644 614.523 368.551 612.781 379.372L595.957 462.8L663.638 359.752C670.931 349.899 679.45 341.186 694.423 341.186C707.697 341.186 715.248 347.059 719.249 351.986C725.725 359.967 727.79 371.498 725.08 384.449L698.92 508.688C697.435 515.723 699.199 522.973 703.738 528.545C708.256 534.116 714.99 537.322 722.154 537.322C732.502 537.3 741.58 530.674 744.743 520.8L793.362 366.271C797.213 353.513 806.206 344.908 818.619 342.111C829.074 339.745 839.981 342.757 847.834 350.136C855.772 357.622 859.494 368.53 857.73 379.351L840.928 462.779L908.587 359.731C915.88 349.878 924.42 341.165 939.394 341.165C952.667 341.165 960.218 347.038 964.22 351.964C970.695 359.946 972.761 371.477 970.05 384.428L943.804 508.688C942.319 515.723 944.084 522.951 948.623 528.545C953.141 534.116 959.874 537.322 967.06 537.322C977.429 537.322 986.507 530.674 989.691 520.8L1038.31 366.271C1042.16 353.513 1051.15 344.908 1063.57 342.111C1074.04 339.745 1084.95 342.757 1092.78 350.136C1100.72 357.622 1104.44 368.53 1102.68 379.351L1085.88 462.779L1153.54 359.731C1160.83 349.878 1169.37 341.165 1184.34 341.165V359.15C1178.3 359.15 1174.4 361.796 1168.29 370.036L1076.35 510.043L1022.24 778.334C1018.41 797.287 1005.74 813.615 988.358 822.049C979.236 826.459 969.792 828.589 960.541 828.589ZM1049.8 550.402L924.141 741.74C910.48 762.543 917.601 783.562 927.863 795.265C938.146 806.946 958.067 816.756 980.441 805.892C992.789 799.912 1001.8 788.294 1004.54 774.806L1049.8 550.402ZM559.923 550.402L434.265 741.74C420.604 762.543 427.746 783.562 438.008 795.265C448.27 806.946 468.191 816.756 490.586 805.892C502.956 799.912 511.97 788.294 514.681 774.806L559.923 550.402ZM804.893 550.38L679.235 741.718C665.574 762.522 672.695 783.54 682.957 795.243C693.218 806.925 713.161 816.735 735.535 805.871C747.883 799.89 756.897 788.273 759.63 774.784L804.893 550.38Z" fill="white"/>
<path d="M730.63 325.03C729.963 325.03 729.296 325.009 728.629 324.966C719.701 324.428 711.526 320.469 705.61 313.779C699.694 307.088 696.725 298.504 697.263 289.598C697.801 280.692 701.759 272.517 708.45 266.579C715.141 260.663 723.574 257.672 732.631 258.21C751.046 259.307 765.116 275.184 763.997 293.578C762.921 311.326 748.142 325.03 730.63 325.03ZM730.587 276.152C726.801 276.152 723.208 277.508 720.368 280.046C717.292 282.778 715.442 286.565 715.205 290.674C714.968 294.783 716.324 298.763 719.077 301.839C721.81 304.915 725.596 306.765 729.705 307.002C738.504 307.475 745.539 301 746.034 292.502C746.27 288.393 744.915 284.413 742.161 281.337C739.429 278.261 735.643 276.41 731.534 276.174C731.211 276.174 730.888 276.152 730.587 276.152Z" fill="white"/>
<path d="M854.073 325.03C853.406 325.03 852.739 325.009 852.072 324.966C843.144 324.428 834.969 320.469 829.053 313.779C823.137 307.088 820.168 298.504 820.706 289.598C821.244 280.692 825.202 272.517 831.893 266.579C838.562 260.663 846.995 257.672 856.073 258.21C874.489 259.307 888.558 275.184 887.44 293.578C886.364 311.326 871.584 325.03 854.073 325.03ZM854.03 276.152C850.243 276.152 846.651 277.508 843.811 280.046C840.735 282.778 838.884 286.565 838.648 290.674C838.411 294.783 839.767 298.763 842.52 301.839C845.252 304.915 849.039 306.765 853.148 307.002C861.947 307.475 868.981 301 869.476 292.502C869.713 288.393 868.357 284.413 865.604 281.337C862.872 278.261 859.085 276.41 854.976 276.174C854.654 276.174 854.331 276.152 854.03 276.152Z" fill="white"/>
</svg>
