<svg class="logo" width="720" height="401" viewBox="0 0 720 401" fill="none"
    xmlns="http://www.w3.org/2000/svg">
    <g id="clips" fill="white" clip-path="url(#clip0)">
        <path id="stroke" d="M682.036 92.187L656.279 127.496C656.279 127.496 659.708 112.748 659.708 102.501C659.708 89.1298 652.546 72.7686 634.623 72.7686C618.886 72.7686 608.967 82.0075 601.569 98.671L557.149 202.247C552.509 211.486 547.902 216.122 540.504 216.122C532.165 216.122 528.466 208.731 531.257 201.34C536.805 187.465 556.241 141.237 565.488 116.275C573.828 93.1613 559.94 72.8022 536.805 72.8022C522.918 72.8022 512.729 83.8888 507.181 92.2206L483.609 126.623C483.609 126.623 497.732 73.7093 458.894 73.7093C446.654 73.7093 435.02 82.0411 427.588 98.671L383.168 202.247C378.528 211.486 373.921 216.122 366.523 216.122C358.184 216.122 354.485 208.731 357.276 201.34C362.825 187.465 382.26 141.237 391.508 116.275C399.847 93.1613 385.959 72.8022 362.825 72.8022C347.088 72.8022 337.84 85.7366 325.802 102.4L309.258 125.044C309.258 125.044 322.406 74.0117 285.283 74.0117C269.546 74.0117 259.156 84.8631 251.758 101.493L208.246 202.281C204.547 211.519 198.999 216.156 191.601 216.156C183.262 216.156 179.563 208.765 182.354 201.373C187.902 187.498 207.338 141.271 216.585 116.309C224.924 93.1949 211.037 72.8358 187.902 72.8358C168.466 72.8358 157.37 92.2542 151.821 101.493L87.8983 210.545C86.0489 214.241 83.258 217.029 79.5591 217.029C75.8602 217.029 73.0693 213.334 74.9187 207.79L95.2624 128.269C101.752 106.062 94.3545 85.9046 73.0693 85.9046C46.2357 85.9046 44.3863 114.562 33.2897 114.562C28.6493 114.562 26.7999 110.866 26.7999 103.475C26.7999 92.3886 36.0471 61.85 -0.0336465 61.85V80.3277C8.3056 80.3277 6.25442 88.6594 6.25442 104.382C6.25442 121.012 16.3086 136.231 32.0456 136.231C57.9712 136.231 57.3659 108.078 69.3704 108.078C75.8602 108.078 76.7681 115.469 74.0108 125.648L53.6335 202.381C48.0852 221.8 60.9975 239.202 79.5255 239.202C90.6221 239.202 100.811 232.718 106.359 222.572L171.156 112.546C178.554 99.6117 182.253 94.9755 187.801 94.9755C195.199 94.9755 198.898 100.519 196.14 108.851C186.893 132.905 167.457 179.133 161.909 193.008C153.57 215.215 168.399 238.329 191.534 238.329C207.271 238.329 221.158 228.149 228.556 210.579L273.917 108.851C277.616 99.6117 280.239 94.9755 286.863 94.9755C292.412 94.9755 294.261 101.459 292.412 110.698C289.419 125.145 286.157 139.557 282.761 153.701L273.884 164.351C263.695 176.378 205.388 250.356 178.554 282.709C154.511 310.392 141.565 336.294 141.565 354.772C141.565 379.734 163.792 401 189.684 401C221.158 401 237.803 380.674 257.239 317.783C269.681 278.812 277.683 245.754 298.532 166.736L353.477 100.519C357.175 95.8826 359.966 94.9755 362.724 94.9755C370.121 94.9755 373.82 100.519 371.063 108.851C361.816 132.905 342.38 179.133 336.832 193.008C328.492 215.215 343.321 238.329 366.456 238.329C382.193 238.329 396.081 228.149 403.478 210.579L447.898 108.851C451.597 99.6117 454.388 94.9755 459.936 94.9755C466.998 94.9755 467.334 101.459 466.426 110.698C463.333 132.368 460.811 143.656 458.221 153.096L442.35 173.556C398.838 228.116 371.097 263.257 351.661 286.371C323.886 320.572 316.488 336.294 316.488 354.806C316.488 379.767 338.715 401.034 364.607 401.034C396.081 401.034 412.726 380.708 432.161 317.817C442.518 285.363 460.138 220.926 472.983 171.137L527.491 100.519C530.282 96.8232 533.981 94.9755 536.738 94.9755C544.136 94.9755 547.835 100.519 545.077 108.851C535.83 132.905 516.394 179.133 510.846 193.008C502.507 215.215 517.336 238.329 540.471 238.329C556.208 238.329 570.095 228.149 577.493 210.579L621.005 110.732C624.704 101.493 626.923 95.0091 634.892 95.0091C642.29 95.0091 643.232 104.248 640.441 117.216L629.983 162.302L618.214 177.319C575.61 231.811 545.077 263.223 525.642 286.337C497.867 320.538 490.469 336.261 490.469 354.772C490.469 379.734 512.696 401 538.588 401C570.062 401 586.706 380.674 606.142 317.783C617.272 282.843 630.454 232.886 649.184 165.056L698.681 99.5781C707.02 88.4915 714.418 80.1597 719.966 80.1597V61.682C704.263 61.6484 694.074 75.5235 682.036 92.187ZM235.954 311.299C219.309 364.918 208.179 377.886 188.743 377.886C174.855 377.886 163.759 367.706 163.759 354.772C163.759 342.745 175.797 325.174 193.383 300.212C210.801 275.352 235.718 242.999 272.034 196.603C259.458 244.981 244.797 284.019 235.954 311.299ZM410.876 311.299C394.231 364.918 383.101 377.886 363.665 377.886C349.778 377.886 338.681 367.706 338.681 354.772C338.681 342.745 345.171 332.565 367.364 302.06C386.968 275.116 413.095 241.655 444.435 202.381C431.455 248.508 419.518 283.918 410.876 311.299ZM584.891 311.299C568.246 364.918 557.116 377.886 537.68 377.886C523.792 377.886 512.696 367.706 512.696 354.772C512.696 342.745 518.244 330.717 542.32 300.212C559.436 279.853 585.16 249.449 618.887 205.237C610.648 230.635 592.019 288.521 584.891 311.299Z" />

        <path id="dot1" d="M383.404 64.1344C401.225 64.1344 415.517 49.8898 415.517 32.0504C415.517 15.1181 401.259 -0.0336304 383.404 -0.0336304C366.456 -0.0336304 352.199 15.1181 352.199 32.0504C352.199 48.9827 365.582 64.1344 383.404 64.1344ZM383.404 20.0567C389.893 20.0567 395.442 25.6 395.442 32.084C395.442 38.568 389.893 44.1113 383.404 44.1113C376.914 44.1113 371.366 38.568 371.366 32.084C371.366 25.6 376.914 20.0567 383.404 20.0567Z"/>
        <path id="dot2" d="M477.792 64.1344C495.614 64.1344 509.905 49.8898 509.905 32.0504C509.905 15.1181 495.647 -0.0336304 477.792 -0.0336304C460.844 -0.0336304 446.587 15.1181 446.587 32.0504C446.587 48.9827 459.936 64.1344 477.792 64.1344ZM477.758 20.0567C484.248 20.0567 489.796 25.6 489.796 32.084C489.796 38.568 484.248 44.1113 477.758 44.1113C471.268 44.1113 465.72 38.568 465.72 32.084C465.72 25.6 471.268 20.0567 477.758 20.0567Z" fill="white"/>
    </g>
    <defs>
        <clipPath id="clip0">
            <rect width="720" height="401" fill="white"/>
        </clipPath>
    </defs>
</svg>
